<svg xmlns="http://www.w3.org/2000/svg" viewBox="0 0 64 64"><defs><style>.cls-1,.cls-10,.cls-11,.cls-2,.cls-3,.cls-4,.cls-5,.cls-6,.cls-7,.cls-8,.cls-9{fill:none;}.cls-1{stroke:#083866;}.cls-1,.cls-10,.cls-11,.cls-12,.cls-2,.cls-3,.cls-4,.cls-5,.cls-6,.cls-7,.cls-8,.cls-9{stroke-miterlimit:10;}.cls-2{stroke:#31d2da;}.cls-10,.cls-11,.cls-12,.cls-2,.cls-3,.cls-4,.cls-5,.cls-6,.cls-7,.cls-8,.cls-9{stroke-linecap:round;}.cls-3{stroke:#7a2ee8;}.cls-4{stroke:#562ee6;}.cls-5{stroke:#30c2dc;}.cls-6{stroke:#9f2ee9;}.cls-7{stroke:#eb2ded;}.cls-8{stroke:#30a1dd;}.cls-9{stroke:#193a65;opacity:0.5;}.cls-10{stroke:#3070e8;}.cls-11{stroke:#2f4ee2;}.cls-12{fill:#eb2ded;stroke:#f12ca7;}.cls-13{fill:#f22c81;}</style></defs><title>Artboard 1275</title><circle id="background_ring" data-name="background ring" class="cls-1" cx="32.08" cy="32.13" r="22.12"/><line class="cls-2" x1="50.27" y1="13.94" x2="53.77" y2="10.45"/><line class="cls-3" x1="10.43" y1="53.78" x2="13.93" y2="50.29"/><line class="cls-2" x1="48.62" y1="12.43" x2="51.8" y2="8.64"/><line class="cls-3" x1="12.41" y1="55.59" x2="15.58" y2="51.8"/><line class="cls-2" x1="46.84" y1="11.06" x2="49.68" y2="7.01"/><line class="cls-3" x1="14.53" y1="57.22" x2="17.36" y2="53.17"/><line class="cls-2" x1="44.95" y1="9.86" x2="47.42" y2="5.58"/><line class="cls-3" x1="16.78" y1="58.65" x2="19.25" y2="54.38"/><line class="cls-2" x1="42.97" y1="8.82" x2="45.05" y2="4.34"/><line class="cls-3" x1="19.15" y1="59.89" x2="21.24" y2="55.41"/><line class="cls-2" x1="40.89" y1="7.96" x2="42.58" y2="3.32"/><line class="cls-4" x1="21.62" y1="60.91" x2="23.31" y2="56.27"/><line class="cls-2" x1="36.56" y1="6.81" x2="37.42" y2="1.94"/><line class="cls-4" x1="26.78" y1="62.29" x2="27.65" y2="57.36"/><line class="cls-2" x1="38.76" y1="7.29" x2="40.03" y2="2.52"/><line class="cls-4" x1="24.17" y1="61.72" x2="25.45" y2="56.94"/><line class="cls-5" x1="53.15" y1="17.38" x2="57.2" y2="14.54"/><line class="cls-6" x1="7" y1="49.69" x2="11.05" y2="46.86"/><line class="cls-5" x1="55.4" y1="21.25" x2="59.87" y2="19.17"/><line class="cls-7" x1="4.33" y1="45.07" x2="8.81" y2="42.98"/><line class="cls-5" x1="54.36" y1="19.27" x2="58.64" y2="16.79"/><line class="cls-6" x1="5.56" y1="47.44" x2="9.84" y2="44.97"/><line class="cls-8" x1="62.28" y1="37.44" x2="57.41" y2="36.58"/><line class="cls-9" x1="7.28" y1="25.46" x2="2.5" y2="24.19"/><line class="cls-8" x1="61.7" y1="40.05" x2="56.93" y2="38.77"/><line class="cls-9" x1="7.95" y1="23.32" x2="3.31" y2="21.64"/><line class="cls-8" x1="60.9" y1="42.6" x2="56.26" y2="40.91"/><line class="cls-9" x1="8.8" y1="21.25" x2="4.33" y2="19.17"/><line class="cls-8" x1="59.87" y1="45.07" x2="55.4" y2="42.98"/><line class="cls-9" x1="9.84" y1="19.26" x2="5.56" y2="16.79"/><line class="cls-10" x1="58.64" y1="47.44" x2="54.15" y2="44.85"/><line class="cls-9" x1="11.05" y1="17.37" x2="7" y2="14.54"/><line class="cls-10" x1="57.2" y1="49.69" x2="53.16" y2="46.86"/><line class="cls-9" x1="12.42" y1="15.6" x2="8.63" y2="12.42"/><line class="cls-10" x1="55.58" y1="51.81" x2="51.79" y2="48.64"/><line class="cls-9" x1="13.93" y1="13.94" x2="10.43" y2="10.45"/><line class="cls-10" x1="53.77" y1="53.78" x2="50.27" y2="50.29"/><line class="cls-9" x1="17.36" y1="11.07" x2="14.53" y2="7.01"/><line class="cls-10" x1="49.68" y1="57.22" x2="46.84" y2="53.17"/><line class="cls-9" x1="19.25" y1="9.86" x2="16.78" y2="5.58"/><line class="cls-11" x1="47.42" y1="58.65" x2="44.95" y2="54.37"/><line class="cls-9" x1="23.31" y1="7.96" x2="21.62" y2="3.32"/><line class="cls-11" x1="42.58" y1="60.91" x2="40.89" y2="56.27"/><line class="cls-9" x1="25.45" y1="7.29" x2="24.17" y2="2.52"/><line class="cls-11" x1="40.03" y1="61.72" x2="38.76" y2="56.95"/><line class="cls-9" x1="27.64" y1="6.8" x2="26.78" y2="1.94"/><line class="cls-11" x1="37.42" y1="62.29" x2="36.57" y2="57.43"/><line class="cls-9" x1="29.86" y1="6.51" x2="29.43" y2="1.59"/><line class="cls-11" x1="34.77" y1="62.64" x2="34.34" y2="57.72"/><line class="cls-2" x1="32.1" y1="6.32" x2="32.1" y2="1.47"/><line class="cls-4" x1="32.1" y1="62.76" x2="32.1" y2="57.82"/><line class="cls-9" x1="21.24" y1="8.82" x2="19.15" y2="4.34"/><line class="cls-11" x1="45.05" y1="59.89" x2="42.96" y2="55.41"/><line class="cls-5" x1="56.26" y1="23.33" x2="60.9" y2="21.64"/><line class="cls-7" x1="3.31" y1="42.6" x2="7.95" y2="40.91"/><line class="cls-5" x1="57.42" y1="27.65" x2="62.28" y2="26.8"/><line class="cls-12" x1="1.92" y1="37.44" x2="6.79" y2="36.58"/><line class="cls-5" x1="56.93" y1="25.46" x2="61.7" y2="24.19"/><line class="cls-12" x1="2.5" y1="40.05" x2="7.27" y2="38.77"/><line class="cls-5" x1="57.71" y1="29.88" x2="62.63" y2="29.45"/><line class="cls-5" x1="57.9" y1="32.12" x2="62.75" y2="32.12"/><line class="cls-6" x1="12.42" y1="48.64" x2="8.63" y2="51.81"/><line class="cls-5" x1="55.58" y1="12.42" x2="51.79" y2="15.6"/><line class="cls-8" x1="57.7" y1="34.36" x2="62.63" y2="34.79"/><line class="cls-4" x1="29.86" y1="57.72" x2="29.43" y2="62.64"/><line class="cls-2" x1="34.77" y1="1.59" x2="34.34" y2="6.51"/><line class="cls-10" x1="48.56" y1="51.73" x2="51.8" y2="55.59"/><line class="cls-9" x1="12.41" y1="8.64" x2="15.64" y2="12.5"/><line class="cls-12" x1="1.58" y1="34.79" x2="6.5" y2="34.36"/><circle id="pointer" class="cls-13" cx="4.14" cy="29.75" r="3"/></svg>