<svg xmlns="http://www.w3.org/2000/svg" viewBox="0 0 64 64"><defs><style>.cls-1,.cls-2,.cls-3,.cls-4,.cls-5,.cls-6,.cls-7,.cls-8{fill:none;stroke-miterlimit:10;}.cls-1{stroke:#083866;}.cls-2{stroke:#193a65;opacity:0.5;}.cls-2,.cls-3,.cls-4,.cls-5,.cls-6,.cls-7,.cls-8{stroke-linecap:round;}.cls-3{stroke:#3070e8;}.cls-4{stroke:#30a1dd;}.cls-5{stroke:#2f4ee2;}.cls-6{stroke:#31d2da;}.cls-7{stroke:#30c2dc;}.cls-8{stroke:#562ee6;}.cls-9{fill:#7a2ee8;}</style></defs><title>Artboard 1155</title><circle id="background_ring" data-name="background ring" class="cls-1" cx="32.08" cy="32.13" r="22.12"/><line class="cls-2" x1="7.23" y1="25.43" x2="2.46" y2="24.15"/><line class="cls-3" x1="61.66" y1="40.01" x2="56.88" y2="38.73"/><line class="cls-2" x1="6.75" y1="27.62" x2="1.88" y2="26.76"/><line class="cls-3" x1="62.24" y1="37.4" x2="57.37" y2="36.55"/><line class="cls-2" x1="6.45" y1="29.84" x2="1.53" y2="29.41"/><line class="cls-3" x1="62.58" y1="34.75" x2="57.66" y2="34.32"/><line class="cls-2" x1="6.35" y1="32.08" x2="1.41" y2="32.08"/><line class="cls-3" x1="62.7" y1="32.08" x2="57.76" y2="32.08"/><line class="cls-2" x1="6.45" y1="34.32" x2="1.53" y2="34.75"/><line class="cls-4" x1="62.58" y1="29.41" x2="57.67" y2="29.84"/><line class="cls-2" x1="6.74" y1="36.55" x2="1.88" y2="37.4"/><line class="cls-4" x1="62.24" y1="26.76" x2="57.37" y2="27.62"/><line class="cls-2" x1="7.91" y1="40.87" x2="3.26" y2="42.56"/><line class="cls-4" x1="60.85" y1="21.6" x2="56.14" y2="23.32"/><line class="cls-2" x1="7.23" y1="38.73" x2="2.46" y2="40.01"/><line class="cls-4" x1="61.66" y1="24.15" x2="56.88" y2="25.43"/><line class="cls-2" x1="8.77" y1="21.22" x2="4.29" y2="19.13"/><line class="cls-5" x1="59.83" y1="45.03" x2="55.35" y2="42.94"/><line class="cls-2" x1="11" y1="17.34" x2="6.96" y2="14.51"/><line class="cls-5" x1="57.16" y1="49.66" x2="53.11" y2="46.82"/><line class="cls-2" x1="9.8" y1="19.23" x2="5.52" y2="16.76"/><line class="cls-5" x1="58.6" y1="47.4" x2="54.32" y2="44.93"/><line class="cls-2" x1="21.58" y1="3.29" x2="23.27" y2="7.93"/><line class="cls-2" x1="38.71" y1="56.91" x2="39.99" y2="61.68"/><line class="cls-2" x1="24.13" y1="2.48" x2="25.41" y2="7.26"/><line class="cls-2" x1="36.52" y1="57.4" x2="37.38" y2="62.26"/><line class="cls-2" x1="26.74" y1="1.9" x2="27.59" y2="6.77"/><line class="cls-2" x1="34.3" y1="57.69" x2="34.73" y2="62.61"/><line class="cls-2" x1="29.39" y1="1.56" x2="29.82" y2="6.47"/><line class="cls-2" x1="32.06" y1="57.79" x2="32.06" y2="62.73"/><line class="cls-6" x1="32.06" y1="1.44" x2="32.06" y2="6.62"/><line class="cls-2" x1="29.82" y1="57.69" x2="29.39" y2="62.61"/><line class="cls-6" x1="34.73" y1="1.56" x2="34.3" y2="6.48"/><line class="cls-2" x1="27.59" y1="57.39" x2="26.74" y2="62.26"/><line class="cls-6" x1="37.38" y1="1.9" x2="36.52" y2="6.77"/><line class="cls-2" x1="25.41" y1="56.91" x2="24.13" y2="61.68"/><line class="cls-6" x1="39.99" y1="2.48" x2="38.71" y2="7.26"/><line class="cls-2" x1="21.2" y1="55.37" x2="19.11" y2="59.85"/><line class="cls-6" x1="45.01" y1="4.31" x2="42.92" y2="8.79"/><line class="cls-2" x1="19.21" y1="54.34" x2="16.74" y2="58.62"/><line class="cls-7" x1="47.38" y1="5.54" x2="44.91" y2="9.83"/><line class="cls-2" x1="15.53" y1="51.77" x2="12.36" y2="55.56"/><line class="cls-7" x1="51.75" y1="8.61" x2="48.58" y2="12.39"/><line class="cls-2" x1="13.88" y1="50.26" x2="10.39" y2="53.75"/><line class="cls-7" x1="53.73" y1="10.41" x2="50.23" y2="13.91"/><line class="cls-2" x1="12.37" y1="48.61" x2="8.58" y2="51.78"/><line class="cls-7" x1="55.53" y1="12.39" x2="51.75" y2="15.56"/><line class="cls-2" x1="11" y1="46.82" x2="6.96" y2="49.66"/><line class="cls-7" x1="57.16" y1="14.51" x2="53.11" y2="17.34"/><line class="cls-2" x1="9.72" y1="44.98" x2="5.52" y2="47.4"/><line class="cls-4" x1="58.6" y1="16.76" x2="54.31" y2="19.23"/><line class="cls-2" x1="17.32" y1="53.14" x2="14.48" y2="57.18"/><line class="cls-7" x1="49.63" y1="6.98" x2="46.8" y2="11.03"/><line class="cls-2" x1="12.37" y1="15.56" x2="8.58" y2="12.39"/><line class="cls-5" x1="55.53" y1="51.78" x2="51.75" y2="48.6"/><line class="cls-2" x1="15.53" y1="12.39" x2="12.36" y2="8.61"/><line class="cls-8" x1="51.75" y1="55.56" x2="48.58" y2="51.77"/><line class="cls-2" x1="13.88" y1="13.91" x2="10.39" y2="10.41"/><line class="cls-8" x1="53.73" y1="53.75" x2="50.23" y2="50.26"/><line class="cls-2" x1="17.32" y1="11.03" x2="14.48" y2="6.98"/><line class="cls-2" x1="19.16" y1="9.74" x2="16.74" y2="5.54"/><line class="cls-3" x1="56.21" y1="40.87" x2="60.85" y2="42.56"/><line class="cls-2" x1="3.26" y1="21.6" x2="7.91" y2="23.29"/><line class="cls-2" x1="21.2" y1="8.79" x2="19.11" y2="4.31"/><line class="cls-4" x1="55.35" y1="21.22" x2="59.83" y2="19.13"/><line class="cls-2" x1="4.29" y1="45.03" x2="8.77" y2="42.94"/><line class="cls-6" x1="40.82" y1="8.02" x2="42.54" y2="3.29"/><line class="cls-2" x1="21.58" y1="60.88" x2="23.3" y2="56.15"/><line class="cls-8" x1="49.63" y1="57.18" x2="46.8" y2="53.14"/><circle id="pointer" class="cls-9" cx="43.99" cy="57.48" r="3"/></svg>