<svg xmlns="http://www.w3.org/2000/svg" viewBox="0 0 64 64"><defs><style>.cls-1,.cls-2,.cls-3,.cls-4,.cls-5,.cls-6{fill:none;stroke-miterlimit:10;}.cls-1{stroke:#083866;}.cls-2{stroke:#193a65;opacity:0.5;}.cls-2,.cls-3,.cls-4,.cls-5,.cls-6{stroke-linecap:round;}.cls-3{stroke:#30c2dc;}.cls-4{stroke:#31d2da;}.cls-5{stroke:#30a1dd;}.cls-6{stroke:#3070e8;}.cls-7{fill:#2f4ee2;}</style></defs><title>Artboard 190</title><circle id="background_ring" data-name="background ring" class="cls-1" cx="32.08" cy="32.13" r="22.12"/><line class="cls-2" x1="15.54" y1="51.8" x2="12.36" y2="55.59"/><line class="cls-3" x1="51.75" y1="8.64" x2="48.57" y2="12.43"/><line class="cls-2" x1="17.32" y1="53.17" x2="14.48" y2="57.22"/><line class="cls-3" x1="49.63" y1="7.01" x2="46.8" y2="11.06"/><line class="cls-2" x1="19.21" y1="54.37" x2="16.73" y2="58.65"/><line class="cls-3" x1="47.38" y1="5.58" x2="44.91" y2="9.86"/><line class="cls-2" x1="21.19" y1="55.41" x2="19.11" y2="59.89"/><line class="cls-4" x1="45.01" y1="4.34" x2="42.92" y2="8.82"/><line class="cls-2" x1="23.26" y1="56.27" x2="21.58" y2="60.91"/><line class="cls-4" x1="42.54" y1="3.32" x2="40.85" y2="7.96"/><line class="cls-2" x1="25.4" y1="56.94" x2="24.13" y2="61.71"/><line class="cls-4" x1="39.99" y1="2.52" x2="38.71" y2="7.29"/><line class="cls-2" x1="29.82" y1="57.72" x2="29.39" y2="62.64"/><line class="cls-4" x1="34.73" y1="1.59" x2="34.29" y2="6.58"/><line class="cls-2" x1="27.59" y1="57.43" x2="26.73" y2="62.29"/><line class="cls-4" x1="37.38" y1="1.94" x2="36.52" y2="6.8"/><line class="cls-2" x1="12.37" y1="48.63" x2="8.58" y2="51.81"/><line class="cls-3" x1="55.53" y1="12.42" x2="51.74" y2="15.6"/><line class="cls-2" x1="9.8" y1="44.97" x2="5.52" y2="47.44"/><line class="cls-5" x1="58.59" y1="16.79" x2="54.31" y2="19.26"/><line class="cls-2" x1="11" y1="46.86" x2="6.95" y2="49.69"/><line class="cls-5" x1="57.16" y1="14.54" x2="53.11" y2="17.37"/><line class="cls-2" x1="1.53" y1="29.44" x2="6.45" y2="29.88"/><line class="cls-2" x1="57.37" y1="36.58" x2="62.23" y2="37.44"/><line class="cls-2" x1="1.88" y1="26.79" x2="6.74" y2="27.65"/><line class="cls-2" x1="56.89" y1="38.77" x2="61.66" y2="40.05"/><line class="cls-2" x1="2.46" y1="24.18" x2="7.23" y2="25.46"/><line class="cls-2" x1="56.21" y1="40.91" x2="60.85" y2="42.6"/><line class="cls-2" x1="3.26" y1="21.63" x2="7.9" y2="23.32"/><line class="cls-2" x1="55.35" y1="42.98" x2="59.83" y2="45.07"/><line class="cls-2" x1="4.28" y1="19.17" x2="8.98" y2="21.35"/><line class="cls-2" x1="54.31" y1="44.97" x2="58.59" y2="47.44"/><line class="cls-2" x1="5.52" y1="16.79" x2="9.8" y2="19.26"/><line class="cls-2" x1="53.11" y1="46.86" x2="57.16" y2="49.69"/><line class="cls-2" x1="6.95" y1="14.54" x2="11" y2="17.37"/><line class="cls-2" x1="51.74" y1="48.63" x2="55.53" y2="51.81"/><line class="cls-2" x1="8.58" y1="12.42" x2="12.37" y2="15.6"/><line class="cls-2" x1="48.57" y1="51.8" x2="51.75" y2="55.59"/><line class="cls-2" x1="12.36" y1="8.64" x2="15.54" y2="12.43"/><line class="cls-2" x1="46.8" y1="53.17" x2="49.63" y2="57.22"/><line class="cls-2" x1="14.48" y1="7.01" x2="17.32" y2="11.06"/><line class="cls-2" x1="42.92" y1="55.41" x2="45.01" y2="59.89"/><line class="cls-2" x1="19.11" y1="4.34" x2="21.19" y2="8.82"/><line class="cls-2" x1="40.85" y1="56.27" x2="42.54" y2="60.91"/><line class="cls-2" x1="21.58" y1="3.32" x2="23.26" y2="7.96"/><line class="cls-2" x1="38.71" y1="56.94" x2="39.99" y2="61.71"/><line class="cls-2" x1="24.13" y1="2.52" x2="25.4" y2="7.29"/><line class="cls-2" x1="36.52" y1="57.43" x2="37.38" y2="62.29"/><line class="cls-2" x1="26.73" y1="1.94" x2="27.59" y2="6.8"/><line class="cls-2" x1="34.3" y1="57.82" x2="34.73" y2="62.64"/><line class="cls-2" x1="29.39" y1="1.59" x2="29.82" y2="6.51"/><line class="cls-2" x1="44.91" y1="54.37" x2="47.38" y2="58.65"/><line class="cls-2" x1="16.73" y1="5.58" x2="19.2" y2="9.86"/><line class="cls-2" x1="8.76" y1="42.98" x2="4.28" y2="45.07"/><line class="cls-5" x1="59.83" y1="19.17" x2="55.35" y2="21.25"/><line class="cls-2" x1="7.23" y1="38.77" x2="2.46" y2="40.05"/><line class="cls-6" x1="61.66" y1="24.18" x2="56.88" y2="25.46"/><line class="cls-2" x1="7.9" y1="40.91" x2="3.26" y2="42.6"/><line class="cls-6" x1="60.85" y1="21.63" x2="56.21" y2="23.32"/><line class="cls-2" x1="6.74" y1="36.58" x2="1.88" y2="37.44"/><line class="cls-2" x1="6.36" y1="34.36" x2="1.53" y2="34.79"/><line class="cls-3" x1="50.23" y1="13.94" x2="53.72" y2="10.45"/><line class="cls-2" x1="10.39" y1="53.78" x2="13.88" y2="50.29"/><line class="cls-2" x1="6.36" y1="32.12" x2="1.41" y2="32.12"/><line class="cls-4" x1="32.06" y1="6.42" x2="32.06" y2="1.47"/><line class="cls-2" x1="32.06" y1="62.76" x2="32.06" y2="57.82"/><line class="cls-2" x1="13.95" y1="14.01" x2="10.39" y2="10.45"/><line class="cls-2" x1="53.72" y1="53.78" x2="50.16" y2="50.22"/><line class="cls-6" x1="62.23" y1="26.79" x2="57.37" y2="27.65"/><circle id="pointer" class="cls-7" cx="60.12" cy="32.03" r="3"/></svg>