<svg xmlns="http://www.w3.org/2000/svg" viewBox="0 0 64 64"><defs><style>.cls-1,.cls-2,.cls-3,.cls-4,.cls-5,.cls-6{fill:none;stroke-miterlimit:10;}.cls-1{stroke:#083866;}.cls-2{stroke:#193a65;opacity:0.5;}.cls-2,.cls-3,.cls-4,.cls-5,.cls-6{stroke-linecap:round;}.cls-3{stroke:#30c2dc;}.cls-4{stroke:#31d2da;}.cls-5{stroke:#30a1dd;}.cls-6{stroke:#3070e8;}.cls-7{fill:#2f4ee2;}</style></defs><title>Artboard 195</title><circle id="background_ring" data-name="background ring" class="cls-1" cx="32.08" cy="32.13" r="22.12"/><line class="cls-2" x1="13.89" y1="50.27" x2="10.39" y2="53.77"/><line class="cls-3" x1="53.72" y1="10.43" x2="50.23" y2="13.93"/><line class="cls-2" x1="15.54" y1="51.78" x2="12.36" y2="55.57"/><line class="cls-3" x1="51.75" y1="8.62" x2="48.58" y2="12.41"/><line class="cls-2" x1="17.32" y1="53.15" x2="14.48" y2="57.2"/><line class="cls-3" x1="49.63" y1="7" x2="46.8" y2="11.04"/><line class="cls-2" x1="19.2" y1="54.36" x2="16.74" y2="58.63"/><line class="cls-3" x1="47.38" y1="5.56" x2="44.91" y2="9.84"/><line class="cls-2" x1="21.19" y1="55.4" x2="19.11" y2="59.87"/><line class="cls-4" x1="45.01" y1="4.32" x2="42.92" y2="8.8"/><line class="cls-2" x1="23.27" y1="56.25" x2="21.58" y2="60.89"/><line class="cls-4" x1="42.54" y1="3.3" x2="40.85" y2="7.94"/><line class="cls-2" x1="27.59" y1="57.41" x2="26.74" y2="62.27"/><line class="cls-4" x1="37.38" y1="1.92" x2="36.51" y2="6.86"/><line class="cls-2" x1="25.4" y1="56.92" x2="24.13" y2="61.7"/><line class="cls-4" x1="39.99" y1="2.5" x2="38.71" y2="7.27"/><line class="cls-2" x1="11.01" y1="46.84" x2="6.96" y2="49.67"/><line class="cls-3" x1="57.16" y1="14.52" x2="53.11" y2="17.36"/><line class="cls-2" x1="8.76" y1="42.96" x2="4.28" y2="45.05"/><line class="cls-5" x1="59.83" y1="19.15" x2="55.35" y2="21.24"/><line class="cls-2" x1="9.8" y1="44.95" x2="5.52" y2="47.42"/><line class="cls-5" x1="58.59" y1="16.78" x2="54.31" y2="19.25"/><line class="cls-2" x1="1.88" y1="26.78" x2="6.75" y2="27.63"/><line class="cls-2" x1="56.88" y1="38.75" x2="61.66" y2="40.03"/><line class="cls-2" x1="2.46" y1="24.17" x2="7.23" y2="25.44"/><line class="cls-2" x1="56.21" y1="40.89" x2="60.85" y2="42.58"/><line class="cls-2" x1="3.26" y1="21.62" x2="7.9" y2="23.31"/><line class="cls-2" x1="55.36" y1="42.96" x2="59.83" y2="45.05"/><line class="cls-2" x1="4.28" y1="19.15" x2="8.76" y2="21.23"/><line class="cls-2" x1="54.32" y1="44.95" x2="58.59" y2="47.42"/><line class="cls-2" x1="5.52" y1="16.78" x2="10.01" y2="19.37"/><line class="cls-2" x1="53.11" y1="46.84" x2="57.16" y2="49.67"/><line class="cls-2" x1="6.96" y1="14.52" x2="11" y2="17.36"/><line class="cls-2" x1="51.74" y1="48.62" x2="55.53" y2="51.79"/><line class="cls-2" x1="8.58" y1="12.4" x2="12.37" y2="15.58"/><line class="cls-2" x1="50.23" y1="50.27" x2="53.72" y2="53.77"/><line class="cls-2" x1="10.39" y1="10.43" x2="13.88" y2="13.92"/><line class="cls-2" x1="46.8" y1="53.15" x2="49.63" y2="57.2"/><line class="cls-2" x1="14.48" y1="7" x2="17.32" y2="11.05"/><line class="cls-2" x1="44.91" y1="54.35" x2="47.38" y2="58.63"/><line class="cls-2" x1="16.74" y1="5.56" x2="19.21" y2="9.84"/><line class="cls-2" x1="40.85" y1="56.25" x2="42.54" y2="60.89"/><line class="cls-2" x1="21.58" y1="3.3" x2="23.27" y2="7.94"/><line class="cls-2" x1="38.71" y1="56.93" x2="39.99" y2="61.7"/><line class="cls-2" x1="24.13" y1="2.5" x2="25.4" y2="7.27"/><line class="cls-2" x1="36.52" y1="57.41" x2="37.38" y2="62.27"/><line class="cls-2" x1="26.74" y1="1.92" x2="27.59" y2="6.78"/><line class="cls-2" x1="34.3" y1="57.7" x2="34.73" y2="62.62"/><line class="cls-2" x1="29.39" y1="1.57" x2="29.82" y2="6.49"/><line class="cls-2" x1="32.06" y1="57.9" x2="32.06" y2="62.74"/><line class="cls-4" x1="32.06" y1="1.45" x2="32.06" y2="6.4"/><line class="cls-2" x1="42.92" y1="55.39" x2="45.01" y2="59.87"/><line class="cls-2" x1="19.11" y1="4.32" x2="21.19" y2="8.8"/><line class="cls-2" x1="7.9" y1="40.89" x2="3.26" y2="42.58"/><line class="cls-5" x1="60.85" y1="21.62" x2="56.21" y2="23.31"/><line class="cls-2" x1="6.74" y1="36.56" x2="1.88" y2="37.42"/><line class="cls-6" x1="62.23" y1="26.78" x2="57.37" y2="27.63"/><line class="cls-2" x1="7.23" y1="38.75" x2="2.46" y2="40.03"/><line class="cls-6" x1="61.66" y1="24.17" x2="56.89" y2="25.44"/><line class="cls-2" x1="6.45" y1="34.34" x2="1.53" y2="34.77"/><line class="cls-2" x1="6.26" y1="32.1" x2="1.41" y2="32.1"/><line class="cls-3" x1="51.74" y1="15.58" x2="55.53" y2="12.4"/><line class="cls-2" x1="8.58" y1="51.79" x2="12.37" y2="48.62"/><line class="cls-2" x1="6.45" y1="29.86" x2="1.53" y2="29.43"/><line class="cls-4" x1="34.3" y1="6.49" x2="34.73" y2="1.57"/><line class="cls-2" x1="29.39" y1="62.62" x2="29.82" y2="57.7"/><line class="cls-2" x1="15.6" y1="12.48" x2="12.36" y2="8.62"/><line class="cls-2" x1="51.75" y1="55.57" x2="48.52" y2="51.71"/><line class="cls-6" x1="62.58" y1="29.43" x2="57.66" y2="29.86"/><circle id="pointer" class="cls-7" cx="60.02" cy="34.46" r="3"/></svg>