<svg xmlns="http://www.w3.org/2000/svg" viewBox="0 0 64 64"><defs><style>.cls-1,.cls-2{fill:none;stroke-miterlimit:10;}.cls-1{stroke:#083866;}.cls-2{stroke:#193a65;stroke-linecap:round;opacity:0.5;}.cls-3{fill:#31d1da;}</style></defs><title>Artboard 15</title><circle id="background_ring" data-name="background ring" class="cls-1" cx="32.08" cy="32.13" r="22.12"/><line class="cls-2" x1="50.24" y1="50.3" x2="53.74" y2="53.8"/><line class="cls-2" x1="10.4" y1="10.46" x2="13.9" y2="13.96"/><line class="cls-2" x1="51.76" y1="48.65" x2="55.54" y2="51.83"/><line class="cls-2" x1="8.6" y1="12.43" x2="12.38" y2="15.61"/><line class="cls-2" x1="53.12" y1="46.87" x2="57.17" y2="49.71"/><line class="cls-2" x1="6.97" y1="14.55" x2="11.02" y2="17.39"/><line class="cls-2" x1="54.33" y1="44.98" x2="58.61" y2="47.45"/><line class="cls-2" x1="5.53" y1="16.81" x2="9.81" y2="19.28"/><line class="cls-2" x1="55.37" y1="42.99" x2="59.84" y2="45.08"/><line class="cls-2" x1="4.3" y1="19.18" x2="8.77" y2="21.27"/><line class="cls-2" x1="56.22" y1="40.92" x2="60.87" y2="42.61"/><line class="cls-2" x1="3.27" y1="21.65" x2="7.92" y2="23.34"/><line class="cls-2" x1="57.38" y1="36.59" x2="62.25" y2="37.45"/><line class="cls-2" x1="1.89" y1="26.81" x2="6.83" y2="27.68"/><line class="cls-2" x1="56.9" y1="38.78" x2="61.67" y2="40.06"/><line class="cls-2" x1="2.47" y1="24.2" x2="7.24" y2="25.48"/><line class="cls-2" x1="46.81" y1="53.18" x2="49.65" y2="57.23"/><line class="cls-2" x1="14.49" y1="7.03" x2="17.33" y2="11.08"/><line class="cls-2" x1="42.93" y1="55.42" x2="45.02" y2="59.9"/><line class="cls-2" x1="19.12" y1="4.36" x2="21.21" y2="8.84"/><line class="cls-2" x1="44.92" y1="54.39" x2="47.39" y2="58.67"/><line class="cls-2" x1="16.75" y1="5.59" x2="19.22" y2="9.87"/><line class="cls-2" x1="26.75" y1="62.31" x2="27.61" y2="57.44"/><line class="cls-2" x1="38.72" y1="7.3" x2="40" y2="2.53"/><line class="cls-2" x1="24.14" y1="61.73" x2="25.42" y2="56.96"/><line class="cls-2" x1="40.86" y1="7.97" x2="42.55" y2="3.33"/><line class="cls-2" x1="21.59" y1="60.92" x2="23.28" y2="56.28"/><line class="cls-2" x1="42.93" y1="8.83" x2="45.02" y2="4.36"/><line class="cls-2" x1="19.12" y1="59.9" x2="21.21" y2="55.43"/><line class="cls-2" x1="44.92" y1="9.87" x2="47.39" y2="5.59"/><line class="cls-2" x1="16.75" y1="58.67" x2="19.34" y2="54.18"/><line class="cls-2" x1="46.81" y1="11.08" x2="49.65" y2="7.03"/><line class="cls-2" x1="14.49" y1="57.23" x2="17.33" y2="53.18"/><line class="cls-2" x1="48.59" y1="12.44" x2="51.77" y2="8.66"/><line class="cls-2" x1="12.37" y1="55.6" x2="15.55" y2="51.82"/><line class="cls-2" x1="50.24" y1="13.96" x2="53.74" y2="10.46"/><line class="cls-2" x1="10.4" y1="53.8" x2="13.9" y2="50.3"/><line class="cls-2" x1="53.12" y1="17.39" x2="57.17" y2="14.55"/><line class="cls-2" x1="6.97" y1="49.71" x2="11.02" y2="46.87"/><line class="cls-2" x1="54.33" y1="19.28" x2="58.61" y2="16.81"/><line class="cls-2" x1="5.53" y1="47.45" x2="9.81" y2="44.98"/><line class="cls-2" x1="56.22" y1="23.34" x2="60.87" y2="21.65"/><line class="cls-2" x1="3.27" y1="42.61" x2="7.92" y2="40.92"/><line class="cls-2" x1="56.9" y1="25.48" x2="61.67" y2="24.2"/><line class="cls-2" x1="2.47" y1="40.06" x2="7.24" y2="38.78"/><line class="cls-2" x1="57.38" y1="27.67" x2="62.25" y2="26.81"/><line class="cls-2" x1="1.89" y1="37.45" x2="6.76" y2="36.59"/><line class="cls-2" x1="57.67" y1="29.89" x2="62.6" y2="29.46"/><line class="cls-2" x1="1.54" y1="34.8" x2="6.47" y2="34.37"/><line class="cls-2" x1="57.87" y1="32.13" x2="62.71" y2="32.13"/><line class="cls-2" x1="1.43" y1="32.13" x2="6.37" y2="32.13"/><line class="cls-2" x1="55.36" y1="21.27" x2="59.84" y2="19.18"/><line class="cls-2" x1="4.3" y1="45.08" x2="8.78" y2="42.99"/><line class="cls-2" x1="40.86" y1="56.28" x2="42.55" y2="60.92"/><line class="cls-2" x1="21.59" y1="3.33" x2="23.28" y2="7.98"/><line class="cls-2" x1="36.53" y1="57.44" x2="37.39" y2="62.31"/><line class="cls-2" x1="26.75" y1="1.95" x2="27.61" y2="6.82"/><line class="cls-2" x1="38.72" y1="56.96" x2="40" y2="61.73"/><line class="cls-2" x1="24.14" y1="2.53" x2="25.42" y2="7.3"/><line class="cls-2" x1="34.31" y1="57.73" x2="34.74" y2="62.66"/><line class="cls-2" x1="29.4" y1="1.6" x2="29.83" y2="6.53"/><line class="cls-2" x1="32.07" y1="57.93" x2="32.07" y2="62.77"/><line class="cls-2" x1="15.55" y1="12.44" x2="12.37" y2="8.66"/><line class="cls-2" x1="51.77" y1="55.6" x2="48.59" y2="51.82"/><line class="cls-2" x1="29.83" y1="57.73" x2="29.4" y2="62.66"/><line class="cls-2" x1="6.47" y1="29.89" x2="1.54" y2="29.46"/><line class="cls-2" x1="62.6" y1="34.8" x2="57.67" y2="34.37"/><line class="cls-2" x1="12.45" y1="48.59" x2="8.6" y2="51.83"/><line class="cls-2" x1="55.54" y1="12.43" x2="51.69" y2="15.67"/><circle id="pointer" class="cls-3" cx="34.43" cy="4.16" r="3"/></svg>