<svg xmlns="http://www.w3.org/2000/svg" viewBox="0 0 64 64"><defs><style>.cls-1,.cls-2,.cls-3,.cls-4,.cls-5{fill:none;stroke-miterlimit:10;}.cls-1{stroke:#083866;}.cls-2{stroke:#193a65;opacity:0.5;}.cls-2,.cls-3,.cls-4,.cls-5{stroke-linecap:round;}.cls-3{stroke:#31d2da;}.cls-4{stroke:#30c2dc;}.cls-5{stroke:#30a1dd;}.cls-6{fill:#3070e8;}</style></defs><title>Artboard 165</title><circle id="background_ring" data-name="background ring" class="cls-1" cx="32.08" cy="32.13" r="22.12"/><line class="cls-2" x1="25.4" y1="56.95" x2="24.12" y2="61.73"/><line class="cls-3" x1="39.99" y1="2.53" x2="38.71" y2="7.31"/><line class="cls-2" x1="27.59" y1="57.44" x2="26.73" y2="62.31"/><line class="cls-3" x1="37.38" y1="1.95" x2="36.52" y2="6.82"/><line class="cls-2" x1="29.82" y1="57.73" x2="29.38" y2="62.66"/><line class="cls-3" x1="34.73" y1="1.6" x2="34.3" y2="6.52"/><line class="cls-2" x1="32.06" y1="57.83" x2="32.06" y2="62.77"/><line class="cls-3" x1="32.06" y1="1.49" x2="32.06" y2="6.43"/><line class="cls-2" x1="34.3" y1="57.74" x2="34.73" y2="62.66"/><line class="cls-2" x1="29.38" y1="1.6" x2="29.82" y2="6.52"/><line class="cls-2" x1="36.52" y1="57.44" x2="37.38" y2="62.31"/><line class="cls-2" x1="26.73" y1="1.95" x2="27.59" y2="6.81"/><line class="cls-2" x1="40.85" y1="56.28" x2="42.54" y2="60.92"/><line class="cls-2" x1="21.57" y1="3.33" x2="23.29" y2="8.04"/><line class="cls-2" x1="38.71" y1="56.96" x2="39.99" y2="61.73"/><line class="cls-2" x1="24.13" y1="2.53" x2="25.4" y2="7.3"/><line class="cls-2" x1="21.19" y1="55.42" x2="19.11" y2="59.9"/><line class="cls-4" x1="45.01" y1="4.36" x2="42.92" y2="8.84"/><line class="cls-2" x1="17.31" y1="53.18" x2="14.48" y2="57.23"/><line class="cls-4" x1="49.63" y1="7.03" x2="46.8" y2="11.08"/><line class="cls-2" x1="19.21" y1="54.39" x2="16.73" y2="58.67"/><line class="cls-4" x1="47.38" y1="5.59" x2="44.91" y2="9.87"/><line class="cls-2" x1="3.26" y1="42.61" x2="7.91" y2="40.92"/><line class="cls-2" x1="56.88" y1="25.48" x2="61.65" y2="24.2"/><line class="cls-2" x1="2.46" y1="40.06" x2="7.23" y2="38.78"/><line class="cls-2" x1="57.37" y1="27.67" x2="62.23" y2="26.81"/><line class="cls-2" x1="1.88" y1="37.45" x2="6.74" y2="36.59"/><line class="cls-2" x1="57.66" y1="29.89" x2="62.58" y2="29.46"/><line class="cls-2" x1="1.53" y1="34.8" x2="6.45" y2="34.37"/><line class="cls-2" x1="57.76" y1="32.13" x2="62.7" y2="32.13"/><line class="cls-2" x1="1.41" y1="32.13" x2="6.59" y2="32.13"/><line class="cls-2" x1="57.66" y1="34.37" x2="62.58" y2="34.8"/><line class="cls-2" x1="1.53" y1="29.46" x2="6.45" y2="29.89"/><line class="cls-2" x1="57.36" y1="36.59" x2="62.23" y2="37.45"/><line class="cls-2" x1="1.88" y1="26.81" x2="6.75" y2="27.67"/><line class="cls-2" x1="56.88" y1="38.78" x2="61.65" y2="40.06"/><line class="cls-2" x1="2.46" y1="24.2" x2="7.23" y2="25.48"/><line class="cls-2" x1="55.35" y1="42.99" x2="59.83" y2="45.08"/><line class="cls-2" x1="4.28" y1="19.18" x2="8.76" y2="21.27"/><line class="cls-2" x1="54.31" y1="44.98" x2="58.59" y2="47.45"/><line class="cls-2" x1="5.52" y1="16.81" x2="9.8" y2="19.28"/><line class="cls-2" x1="51.75" y1="48.65" x2="55.53" y2="51.83"/><line class="cls-2" x1="8.58" y1="12.43" x2="12.37" y2="15.61"/><line class="cls-2" x1="50.23" y1="50.31" x2="53.72" y2="53.8"/><line class="cls-2" x1="10.39" y1="10.46" x2="13.88" y2="13.95"/><line class="cls-2" x1="48.58" y1="51.82" x2="51.75" y2="55.6"/><line class="cls-2" x1="12.36" y1="8.65" x2="15.53" y2="12.44"/><line class="cls-2" x1="46.8" y1="53.18" x2="49.63" y2="57.23"/><line class="cls-2" x1="14.48" y1="7.03" x2="17.31" y2="11.07"/><line class="cls-2" x1="44.95" y1="54.47" x2="47.38" y2="58.67"/><line class="cls-2" x1="16.73" y1="5.59" x2="19.21" y2="9.87"/><line class="cls-2" x1="53.11" y1="46.87" x2="57.16" y2="49.7"/><line class="cls-2" x1="6.95" y1="14.55" x2="11" y2="17.39"/><line class="cls-2" x1="15.53" y1="51.82" x2="12.36" y2="55.6"/><line class="cls-4" x1="51.75" y1="8.65" x2="48.58" y2="12.44"/><line class="cls-2" x1="12.36" y1="48.65" x2="8.58" y2="51.83"/><line class="cls-5" x1="55.53" y1="12.43" x2="51.75" y2="15.61"/><line class="cls-2" x1="13.88" y1="50.31" x2="10.39" y2="53.8"/><line class="cls-5" x1="53.72" y1="10.46" x2="50.23" y2="13.95"/><line class="cls-2" x1="11" y1="46.87" x2="6.95" y2="49.7"/><line class="cls-2" x1="9.71" y1="45.03" x2="5.52" y2="47.45"/><line class="cls-3" x1="40.85" y1="7.98" x2="42.54" y2="3.33"/><line class="cls-2" x1="21.57" y1="60.92" x2="23.27" y2="56.28"/><line class="cls-2" x1="8.76" y1="42.99" x2="4.28" y2="45.08"/><line class="cls-2" x1="21.19" y1="8.84" x2="19.11" y2="4.36"/><line class="cls-2" x1="45.01" y1="59.9" x2="42.92" y2="55.42"/><line class="cls-2" x1="7.99" y1="23.37" x2="3.26" y2="21.65"/><line class="cls-2" x1="60.85" y1="42.61" x2="56.12" y2="40.89"/><line class="cls-5" x1="57.16" y1="14.55" x2="53.11" y2="17.39"/><circle id="pointer" class="cls-6" cx="57.46" cy="20.19" r="3"/></svg>