<svg xmlns="http://www.w3.org/2000/svg" viewBox="0 0 64 64"><defs><style>.cls-1,.cls-10,.cls-11,.cls-12,.cls-2,.cls-3,.cls-4,.cls-5,.cls-6,.cls-8,.cls-9{fill:none;}.cls-1{stroke:#083866;}.cls-1,.cls-10,.cls-11,.cls-12,.cls-2,.cls-3,.cls-4,.cls-5,.cls-6,.cls-7,.cls-8,.cls-9{stroke-miterlimit:10;}.cls-2{stroke:#30c2dc;}.cls-10,.cls-11,.cls-12,.cls-2,.cls-3,.cls-4,.cls-5,.cls-6,.cls-7,.cls-8,.cls-9{stroke-linecap:round;}.cls-3{stroke:#eb2ded;}.cls-4{stroke:#9f2ee9;}.cls-5{stroke:#7a2ee8;}.cls-6{stroke:#31d2da;}.cls-7{fill:#eb2ded;stroke:#f42c5b;}.cls-8{stroke:#30a1dd;}.cls-9{stroke:#3070e8;}.cls-10{stroke:#193a65;opacity:0.5;}.cls-11{stroke:#2f4ee2;}.cls-12{stroke:#562ee6;}.cls-13{fill:#f42c5b;}</style></defs><title>Artboard 1330</title><circle id="background_ring" data-name="background ring" class="cls-1" cx="32.08" cy="32.13" r="22.12"/><line class="cls-2" x1="57.41" y1="36.59" x2="62.28" y2="37.45"/><line class="cls-3" x1="1.92" y1="26.81" x2="6.79" y2="27.67"/><line class="cls-2" x1="57.7" y1="34.37" x2="62.63" y2="34.8"/><line class="cls-4" x1="1.58" y1="29.46" x2="6.5" y2="29.89"/><line class="cls-2" x1="57.8" y1="32.13" x2="62.74" y2="32.13"/><line class="cls-4" x1="1.46" y1="32.13" x2="6.4" y2="32.13"/><line class="cls-2" x1="57.71" y1="29.89" x2="62.63" y2="29.46"/><line class="cls-4" x1="1.58" y1="34.8" x2="6.5" y2="34.37"/><line class="cls-2" x1="57.42" y1="27.67" x2="62.28" y2="26.81"/><line class="cls-5" x1="1.92" y1="37.45" x2="6.79" y2="36.59"/><line class="cls-2" x1="56.93" y1="25.48" x2="61.7" y2="24.2"/><line class="cls-5" x1="2.5" y1="40.06" x2="7.27" y2="38.78"/><line class="cls-6" x1="55.39" y1="21.27" x2="59.87" y2="19.18"/><line class="cls-5" x1="4.33" y1="45.08" x2="8.87" y2="42.96"/><line class="cls-6" x1="56.25" y1="23.34" x2="60.9" y2="21.65"/><line class="cls-5" x1="3.31" y1="42.61" x2="7.95" y2="40.92"/><line class="cls-2" x1="56.25" y1="40.92" x2="60.9" y2="42.61"/><line class="cls-7" x1="3.31" y1="21.65" x2="7.95" y2="23.34"/><line class="cls-8" x1="54.36" y1="44.98" x2="58.64" y2="47.45"/><line class="cls-7" x1="5.56" y1="16.81" x2="9.84" y2="19.28"/><line class="cls-2" x1="55.39" y1="42.99" x2="59.87" y2="45.08"/><line class="cls-7" x1="4.33" y1="19.18" x2="8.81" y2="21.27"/><line class="cls-9" x1="45.05" y1="59.9" x2="42.96" y2="55.42"/><line class="cls-10" x1="23.31" y1="7.98" x2="21.62" y2="3.34"/><line class="cls-9" x1="42.58" y1="60.93" x2="40.89" y2="56.28"/><line class="cls-10" x1="25.45" y1="7.3" x2="24.17" y2="2.53"/><line class="cls-9" x1="40.03" y1="61.73" x2="38.75" y2="56.96"/><line class="cls-10" x1="27.64" y1="6.81" x2="26.78" y2="1.95"/><line class="cls-9" x1="37.42" y1="62.31" x2="36.57" y2="57.45"/><line class="cls-10" x1="29.86" y1="6.52" x2="29.43" y2="1.6"/><line class="cls-11" x1="34.77" y1="62.66" x2="34.32" y2="57.5"/><line class="cls-6" x1="32.1" y1="6.43" x2="32.1" y2="1.49"/><line class="cls-11" x1="32.1" y1="62.77" x2="32.1" y2="57.83"/><line class="cls-6" x1="34.34" y1="6.53" x2="34.77" y2="1.6"/><line class="cls-11" x1="29.43" y1="62.66" x2="29.86" y2="57.73"/><line class="cls-6" x1="36.56" y1="6.82" x2="37.42" y2="1.95"/><line class="cls-11" x1="26.78" y1="62.31" x2="27.64" y2="57.44"/><line class="cls-6" x1="40.89" y1="7.98" x2="42.58" y2="3.34"/><line class="cls-12" x1="21.62" y1="60.93" x2="23.31" y2="56.28"/><line class="cls-6" x1="42.96" y1="8.84" x2="45.05" y2="4.36"/><line class="cls-12" x1="19.15" y1="59.9" x2="21.24" y2="55.42"/><line class="cls-6" x1="46.85" y1="11.07" x2="49.68" y2="7.03"/><line class="cls-12" x1="14.53" y1="57.23" x2="17.36" y2="53.19"/><line class="cls-6" x1="48.63" y1="12.44" x2="51.8" y2="8.66"/><line class="cls-12" x1="12.4" y1="55.6" x2="15.58" y2="51.82"/><line class="cls-6" x1="50.28" y1="13.95" x2="53.77" y2="10.46"/><line class="cls-12" x1="10.43" y1="53.8" x2="13.93" y2="50.31"/><line class="cls-6" x1="51.79" y1="15.61" x2="55.58" y2="12.43"/><line class="cls-5" x1="8.63" y1="51.83" x2="12.41" y2="48.65"/><line class="cls-6" x1="53.23" y1="17.33" x2="57.2" y2="14.55"/><line class="cls-5" x1="7" y1="49.71" x2="11.05" y2="46.87"/><line class="cls-6" x1="44.95" y1="9.87" x2="47.42" y2="5.59"/><line class="cls-12" x1="16.78" y1="58.67" x2="19.25" y2="54.39"/><line class="cls-8" x1="53.16" y1="46.87" x2="57.2" y2="49.71"/><line class="cls-7" x1="7" y1="14.55" x2="11.05" y2="17.39"/><line class="cls-8" x1="50.28" y1="50.31" x2="53.77" y2="53.8"/><line class="cls-7" x1="10.43" y1="10.46" x2="13.93" y2="13.96"/><line class="cls-8" x1="51.79" y1="48.65" x2="55.58" y2="51.83"/><line class="cls-7" x1="8.63" y1="12.43" x2="12.41" y2="15.61"/><line class="cls-8" x1="48.62" y1="51.82" x2="51.8" y2="55.6"/><line class="cls-9" x1="46.9" y1="53.26" x2="49.68" y2="57.23"/><line class="cls-3" x1="7.28" y1="25.48" x2="2.5" y2="24.2"/><line class="cls-2" x1="61.7" y1="40.06" x2="56.93" y2="38.78"/><line class="cls-9" x1="44.95" y1="54.39" x2="47.42" y2="58.67"/><line class="cls-5" x1="9.84" y1="44.98" x2="5.56" y2="47.45"/><line class="cls-6" x1="58.64" y1="16.81" x2="54.36" y2="19.28"/><line class="cls-11" x1="25.47" y1="56.87" x2="24.17" y2="61.73"/><line class="cls-6" x1="40.03" y1="2.53" x2="38.73" y2="7.39"/><line class="cls-7" x1="12.4" y1="8.66" x2="15.58" y2="12.44"/><circle id="pointer" class="cls-13" cx="18" cy="7.87" r="3"/></svg>