<svg xmlns="http://www.w3.org/2000/svg" viewBox="0 0 64 64"><defs><style>.cls-1,.cls-2,.cls-3,.cls-4,.cls-5,.cls-6,.cls-7,.cls-8,.cls-9{fill:none;stroke-miterlimit:10;}.cls-1{stroke:#083866;}.cls-2{stroke:#193a65;opacity:0.5;}.cls-2,.cls-3,.cls-4,.cls-5,.cls-6,.cls-7,.cls-8,.cls-9{stroke-linecap:round;}.cls-3{stroke:#2f4ee2;}.cls-4{stroke:#3070e8;}.cls-5{stroke:#562ee6;}.cls-6{stroke:#31d2da;}.cls-7{stroke:#30c2dc;}.cls-8{stroke:#30a1dd;}.cls-9{stroke:#7a2ee8;}.cls-10{fill:#9f2ee9;}</style></defs><title>Artboard 1185</title><circle id="background_ring" data-name="background ring" class="cls-1" cx="32.08" cy="32.13" r="22.12"/><line class="cls-2" x1="13.92" y1="13.91" x2="10.42" y2="10.42"/><line class="cls-3" x1="53.76" y1="53.75" x2="50.26" y2="50.26"/><line class="cls-2" x1="12.4" y1="15.56" x2="8.62" y2="12.39"/><line class="cls-3" x1="55.56" y1="51.78" x2="51.78" y2="48.6"/><line class="cls-2" x1="11.04" y1="17.34" x2="6.99" y2="14.51"/><line class="cls-3" x1="57.19" y1="49.66" x2="53.14" y2="46.83"/><line class="cls-2" x1="9.83" y1="19.23" x2="5.55" y2="16.76"/><line class="cls-3" x1="58.63" y1="47.41" x2="54.35" y2="44.94"/><line class="cls-2" x1="8.79" y1="21.22" x2="4.32" y2="19.13"/><line class="cls-3" x1="59.86" y1="45.03" x2="55.39" y2="42.95"/><line class="cls-2" x1="7.93" y1="23.29" x2="3.29" y2="21.6"/><line class="cls-4" x1="60.88" y1="42.56" x2="56.24" y2="40.88"/><line class="cls-2" x1="6.78" y1="27.62" x2="1.91" y2="26.76"/><line class="cls-4" x1="62.27" y1="37.41" x2="57.33" y2="36.53"/><line class="cls-2" x1="7.26" y1="25.43" x2="2.49" y2="24.15"/><line class="cls-4" x1="61.69" y1="40.02" x2="56.92" y2="38.74"/><line class="cls-2" x1="17.35" y1="11.03" x2="14.51" y2="6.98"/><line class="cls-5" x1="49.67" y1="57.19" x2="46.83" y2="53.14"/><line class="cls-2" x1="21.23" y1="8.79" x2="19.14" y2="4.31"/><line class="cls-5" x1="45.04" y1="59.86" x2="42.95" y2="55.38"/><line class="cls-2" x1="19.24" y1="9.83" x2="16.77" y2="5.55"/><line class="cls-5" x1="47.41" y1="58.62" x2="44.94" y2="54.34"/><line class="cls-6" x1="37.41" y1="1.91" x2="36.55" y2="6.78"/><line class="cls-2" x1="25.44" y1="56.91" x2="24.16" y2="61.68"/><line class="cls-6" x1="40.02" y1="2.48" x2="38.74" y2="7.26"/><line class="cls-2" x1="23.3" y1="56.24" x2="21.61" y2="60.88"/><line class="cls-6" x1="42.57" y1="3.29" x2="40.88" y2="7.93"/><line class="cls-2" x1="21.23" y1="55.38" x2="19.14" y2="59.86"/><line class="cls-6" x1="45.04" y1="4.31" x2="42.95" y2="8.79"/><line class="cls-2" x1="19.24" y1="54.34" x2="16.77" y2="58.62"/><line class="cls-7" x1="47.41" y1="5.55" x2="44.82" y2="10.03"/><line class="cls-2" x1="17.35" y1="53.14" x2="14.51" y2="57.19"/><line class="cls-7" x1="49.67" y1="6.98" x2="46.83" y2="11.03"/><line class="cls-2" x1="15.57" y1="51.77" x2="12.39" y2="55.56"/><line class="cls-7" x1="51.79" y1="8.61" x2="48.61" y2="12.4"/><line class="cls-2" x1="13.92" y1="50.26" x2="10.42" y2="53.75"/><line class="cls-7" x1="53.76" y1="10.42" x2="50.26" y2="13.91"/><line class="cls-2" x1="11.04" y1="46.82" x2="6.99" y2="49.66"/><line class="cls-7" x1="57.19" y1="14.51" x2="53.14" y2="17.34"/><line class="cls-2" x1="9.83" y1="44.93" x2="5.55" y2="47.41"/><line class="cls-8" x1="58.63" y1="16.76" x2="54.35" y2="19.23"/><line class="cls-2" x1="7.93" y1="40.88" x2="3.29" y2="42.56"/><line class="cls-8" x1="60.88" y1="21.6" x2="56.24" y2="23.29"/><line class="cls-2" x1="7.26" y1="38.74" x2="2.49" y2="40.02"/><line class="cls-8" x1="61.69" y1="24.15" x2="56.92" y2="25.43"/><line class="cls-2" x1="6.78" y1="36.55" x2="1.91" y2="37.41"/><line class="cls-8" x1="62.27" y1="26.76" x2="57.4" y2="27.62"/><line class="cls-2" x1="6.48" y1="34.32" x2="1.56" y2="34.75"/><line class="cls-8" x1="62.62" y1="29.41" x2="57.69" y2="29.84"/><line class="cls-2" x1="6.29" y1="32.08" x2="1.45" y2="32.08"/><line class="cls-4" x1="62.73" y1="32.08" x2="57.79" y2="32.08"/><line class="cls-2" x1="8.8" y1="42.95" x2="4.32" y2="45.03"/><line class="cls-8" x1="59.86" y1="19.13" x2="55.38" y2="21.22"/><line class="cls-2" x1="23.3" y1="7.93" x2="21.61" y2="3.29"/><line class="cls-5" x1="42.57" y1="60.88" x2="40.88" y2="56.24"/><line class="cls-2" x1="27.63" y1="6.77" x2="26.77" y2="1.91"/><line class="cls-9" x1="37.41" y1="62.26" x2="36.55" y2="57.4"/><line class="cls-2" x1="25.44" y1="7.25" x2="24.16" y2="2.48"/><line class="cls-5" x1="40.02" y1="61.68" x2="38.74" y2="56.91"/><line class="cls-2" x1="29.85" y1="6.48" x2="29.42" y2="1.56"/><line class="cls-6" x1="32.09" y1="6.29" x2="32.09" y2="1.44"/><line class="cls-3" x1="48.61" y1="51.77" x2="51.79" y2="55.56"/><line class="cls-2" x1="12.39" y1="8.61" x2="15.57" y2="12.4"/><line class="cls-6" x1="34.33" y1="6.48" x2="34.76" y2="1.56"/><line class="cls-4" x1="57.69" y1="34.32" x2="62.62" y2="34.75"/><line class="cls-2" x1="1.56" y1="29.41" x2="6.49" y2="29.84"/><line class="cls-7" x1="51.71" y1="15.62" x2="55.56" y2="12.39"/><line class="cls-2" x1="8.62" y1="51.78" x2="12.47" y2="48.54"/><line class="cls-9" x1="34.76" y1="62.61" x2="34.33" y2="57.69"/><circle id="pointer" class="cls-10" cx="29.73" cy="60.05" r="3"/></svg>