<svg xmlns="http://www.w3.org/2000/svg" viewBox="0 0 64 64"><defs><style>.cls-1,.cls-10,.cls-11,.cls-2,.cls-3,.cls-4,.cls-5,.cls-6,.cls-7,.cls-8,.cls-9{fill:none;stroke-miterlimit:10;}.cls-1{stroke:#083866;}.cls-2{stroke:#193a65;opacity:0.5;}.cls-10,.cls-11,.cls-2,.cls-3,.cls-4,.cls-5,.cls-6,.cls-7,.cls-8,.cls-9{stroke-linecap:round;}.cls-3{stroke:#7a2ee8;}.cls-4{stroke:#562ee6;}.cls-5{stroke:#2f4ee2;}.cls-6{stroke:#31d2da;}.cls-7{stroke:#30c2dc;}.cls-8{stroke:#30a1dd;}.cls-9{stroke:#3070e8;}.cls-10{stroke:#9f2ee9;}.cls-11{stroke:#eb2ded;}.cls-12{fill:#ef2dcb;}</style></defs><title>Artboard 1225</title><circle id="background_ring" data-name="background ring" class="cls-1" cx="32.08" cy="32.13" r="22.12"/><line class="cls-2" x1="29.86" y1="6.48" x2="29.43" y2="1.56"/><line class="cls-3" x1="34.77" y1="62.61" x2="34.34" y2="57.69"/><line class="cls-2" x1="27.64" y1="6.78" x2="26.78" y2="1.91"/><line class="cls-4" x1="37.42" y1="62.26" x2="36.57" y2="57.39"/><line class="cls-2" x1="25.45" y1="7.26" x2="24.17" y2="2.49"/><line class="cls-4" x1="40.03" y1="61.68" x2="38.76" y2="56.91"/><line class="cls-2" x1="23.31" y1="7.93" x2="21.62" y2="3.29"/><line class="cls-4" x1="42.58" y1="60.88" x2="40.89" y2="56.24"/><line class="cls-2" x1="21.24" y1="8.79" x2="19.15" y2="4.31"/><line class="cls-4" x1="45.05" y1="59.86" x2="42.97" y2="55.38"/><line class="cls-2" x1="19.25" y1="9.82" x2="16.78" y2="5.55"/><line class="cls-4" x1="47.43" y1="58.62" x2="44.96" y2="54.35"/><line class="cls-2" x1="15.58" y1="12.4" x2="12.41" y2="8.61"/><line class="cls-5" x1="51.8" y1="55.56" x2="48.58" y2="51.72"/><line class="cls-2" x1="17.36" y1="11.03" x2="14.53" y2="6.98"/><line class="cls-5" x1="49.68" y1="57.19" x2="46.85" y2="53.14"/><line class="cls-6" x1="34.34" y1="6.48" x2="34.77" y2="1.56"/><line class="cls-3" x1="29.43" y1="62.61" x2="29.86" y2="57.69"/><line class="cls-6" x1="38.76" y1="7.26" x2="40.03" y2="2.49"/><line class="cls-3" x1="24.17" y1="61.68" x2="25.45" y2="56.91"/><line class="cls-6" x1="36.57" y1="6.78" x2="37.42" y2="1.91"/><line class="cls-3" x1="26.78" y1="62.26" x2="27.64" y2="57.4"/><line class="cls-7" x1="55.58" y1="12.39" x2="51.79" y2="15.57"/><line class="cls-2" x1="11.05" y1="46.83" x2="7" y2="49.66"/><line class="cls-7" x1="57.21" y1="14.51" x2="53.16" y2="17.34"/><line class="cls-2" x1="9.84" y1="44.94" x2="5.57" y2="47.41"/><line class="cls-7" x1="58.64" y1="16.76" x2="54.36" y2="19.23"/><line class="cls-2" x1="8.81" y1="42.95" x2="4.33" y2="45.03"/><line class="cls-8" x1="59.88" y1="19.13" x2="55.4" y2="21.22"/><line class="cls-2" x1="7.95" y1="40.88" x2="3.31" y2="42.57"/><line class="cls-8" x1="60.9" y1="21.6" x2="56.03" y2="23.38"/><line class="cls-2" x1="7.28" y1="38.74" x2="2.5" y2="40.02"/><line class="cls-8" x1="61.7" y1="24.15" x2="56.93" y2="25.43"/><line class="cls-2" x1="6.8" y1="36.55" x2="1.93" y2="37.41"/><line class="cls-8" x1="62.28" y1="26.76" x2="57.41" y2="27.62"/><line class="cls-2" x1="6.5" y1="34.32" x2="1.58" y2="34.76"/><line class="cls-8" x1="62.63" y1="29.41" x2="57.71" y2="29.84"/><line class="cls-2" x1="6.5" y1="29.84" x2="1.58" y2="29.41"/><line class="cls-9" x1="62.63" y1="34.76" x2="57.7" y2="34.32"/><line class="cls-2" x1="6.79" y1="27.62" x2="1.93" y2="26.76"/><line class="cls-9" x1="62.28" y1="37.41" x2="57.41" y2="36.55"/><line class="cls-2" x1="7.95" y1="23.29" x2="3.31" y2="21.6"/><line class="cls-9" x1="60.9" y1="42.57" x2="56.26" y2="40.88"/><line class="cls-2" x1="8.81" y1="21.22" x2="4.33" y2="19.13"/><line class="cls-9" x1="59.88" y1="45.03" x2="55.4" y2="42.95"/><line class="cls-2" x1="9.84" y1="19.23" x2="5.57" y2="16.76"/><line class="cls-9" x1="58.64" y1="47.41" x2="54.37" y2="44.94"/><line class="cls-2" x1="11.05" y1="17.34" x2="7" y2="14.51"/><line class="cls-5" x1="57.21" y1="49.66" x2="53.16" y2="46.83"/><line class="cls-2" x1="12.34" y1="15.5" x2="8.63" y2="12.39"/><line class="cls-5" x1="55.58" y1="51.78" x2="51.79" y2="48.6"/><line class="cls-2" x1="7.28" y1="25.43" x2="2.5" y2="24.15"/><line class="cls-9" x1="61.7" y1="40.02" x2="56.93" y2="38.74"/><line class="cls-6" x1="40.89" y1="7.93" x2="42.58" y2="3.29"/><line class="cls-10" x1="21.62" y1="60.88" x2="23.31" y2="56.24"/><line class="cls-6" x1="44.96" y1="9.82" x2="47.43" y2="5.55"/><line class="cls-10" x1="16.78" y1="58.62" x2="19.25" y2="54.35"/><line class="cls-6" x1="42.97" y1="8.79" x2="45.05" y2="4.31"/><line class="cls-10" x1="19.15" y1="59.86" x2="21.24" y2="55.38"/><line class="cls-7" x1="46.85" y1="11.03" x2="49.68" y2="6.98"/><line class="cls-7" x1="48.69" y1="12.32" x2="51.8" y2="8.61"/><line class="cls-3" x1="32.1" y1="57.78" x2="32.1" y2="62.73"/><line class="cls-6" x1="32.1" y1="1.44" x2="32.1" y2="6.38"/><line class="cls-7" x1="50.28" y1="13.91" x2="53.77" y2="10.42"/><line class="cls-5" x1="50.28" y1="50.26" x2="53.77" y2="53.75"/><line class="cls-2" x1="10.44" y1="10.42" x2="13.93" y2="13.91"/><line class="cls-8" x1="57.71" y1="32.08" x2="62.75" y2="32.08"/><line class="cls-2" x1="1.46" y1="32.08" x2="6.5" y2="32.08"/><line class="cls-11" x1="14.53" y1="57.19" x2="17.36" y2="53.14"/><circle id="pointer" class="cls-12" cx="12.32" cy="51.99" r="3"/></svg>