<svg xmlns="http://www.w3.org/2000/svg" viewBox="0 0 64 64"><defs><style>.cls-1,.cls-2{fill:none;stroke-miterlimit:10;}.cls-1{stroke:#083866;}.cls-2{stroke:#193a65;stroke-linecap:round;opacity:0.5;}.cls-3{fill:#31d1da;}</style></defs><title>Artboard 10</title><circle id="background_ring" data-name="background ring" class="cls-1" cx="32.08" cy="32.13" r="22.12"/><line class="cls-2" x1="51.77" y1="48.65" x2="55.56" y2="51.83"/><line class="cls-2" x1="8.61" y1="12.43" x2="12.4" y2="15.61"/><line class="cls-2" x1="53.14" y1="46.87" x2="57.18" y2="49.71"/><line class="cls-2" x1="6.98" y1="14.56" x2="11.03" y2="17.39"/><line class="cls-2" x1="54.34" y1="44.98" x2="58.62" y2="47.45"/><line class="cls-2" x1="5.55" y1="16.81" x2="9.82" y2="19.28"/><line class="cls-2" x1="55.38" y1="42.99" x2="59.86" y2="45.08"/><line class="cls-2" x1="4.31" y1="19.18" x2="8.79" y2="21.27"/><line class="cls-2" x1="56.24" y1="40.92" x2="60.88" y2="42.61"/><line class="cls-2" x1="3.29" y1="21.65" x2="7.93" y2="23.34"/><line class="cls-2" x1="56.91" y1="38.78" x2="61.68" y2="40.06"/><line class="cls-2" x1="2.48" y1="24.2" x2="7.25" y2="25.48"/><line class="cls-2" x1="57.68" y1="34.37" x2="62.61" y2="34.8"/><line class="cls-2" x1="1.56" y1="29.46" x2="6.55" y2="29.9"/><line class="cls-2" x1="57.4" y1="36.6" x2="62.26" y2="37.45"/><line class="cls-2" x1="1.91" y1="26.81" x2="6.77" y2="27.67"/><line class="cls-2" x1="48.6" y1="51.82" x2="51.78" y2="55.61"/><line class="cls-2" x1="12.39" y1="8.66" x2="15.56" y2="12.44"/><line class="cls-2" x1="44.93" y1="54.39" x2="47.4" y2="58.67"/><line class="cls-2" x1="16.76" y1="5.59" x2="19.23" y2="9.87"/><line class="cls-2" x1="46.82" y1="53.18" x2="49.66" y2="57.23"/><line class="cls-2" x1="14.51" y1="7.03" x2="17.34" y2="11.08"/><line class="cls-2" x1="29.41" y1="62.66" x2="29.84" y2="57.73"/><line class="cls-2" x1="36.55" y1="6.82" x2="37.4" y2="1.95"/><line class="cls-2" x1="26.76" y1="62.31" x2="27.62" y2="57.44"/><line class="cls-2" x1="38.74" y1="7.3" x2="40.01" y2="2.53"/><line class="cls-2" x1="24.15" y1="61.73" x2="25.43" y2="56.96"/><line class="cls-2" x1="40.88" y1="7.98" x2="42.56" y2="3.34"/><line class="cls-2" x1="21.6" y1="60.93" x2="23.29" y2="56.29"/><line class="cls-2" x1="42.95" y1="8.84" x2="45.03" y2="4.36"/><line class="cls-2" x1="19.13" y1="59.9" x2="21.32" y2="55.21"/><line class="cls-2" x1="44.93" y1="9.87" x2="47.4" y2="5.59"/><line class="cls-2" x1="16.76" y1="58.67" x2="19.23" y2="54.39"/><line class="cls-2" x1="46.82" y1="11.08" x2="49.66" y2="7.03"/><line class="cls-2" x1="14.51" y1="57.23" x2="17.34" y2="53.18"/><line class="cls-2" x1="48.6" y1="12.44" x2="51.78" y2="8.66"/><line class="cls-2" x1="12.39" y1="55.61" x2="15.56" y2="51.82"/><line class="cls-2" x1="51.77" y1="15.61" x2="55.56" y2="12.43"/><line class="cls-2" x1="8.61" y1="51.83" x2="12.4" y2="48.65"/><line class="cls-2" x1="53.13" y1="17.39" x2="57.18" y2="14.56"/><line class="cls-2" x1="6.98" y1="49.71" x2="11.03" y2="46.87"/><line class="cls-2" x1="55.38" y1="21.27" x2="59.86" y2="19.18"/><line class="cls-2" x1="4.31" y1="45.08" x2="8.79" y2="42.99"/><line class="cls-2" x1="56.24" y1="23.34" x2="60.88" y2="21.65"/><line class="cls-2" x1="3.29" y1="42.61" x2="7.93" y2="40.92"/><line class="cls-2" x1="56.91" y1="25.48" x2="61.68" y2="24.2"/><line class="cls-2" x1="2.48" y1="40.06" x2="7.25" y2="38.78"/><line class="cls-2" x1="57.4" y1="27.67" x2="62.26" y2="26.81"/><line class="cls-2" x1="1.91" y1="37.45" x2="6.77" y2="36.59"/><line class="cls-2" x1="57.78" y1="29.88" x2="62.61" y2="29.46"/><line class="cls-2" x1="1.56" y1="34.8" x2="6.48" y2="34.37"/><line class="cls-2" x1="54.34" y1="19.28" x2="58.62" y2="16.81"/><line class="cls-2" x1="5.55" y1="47.45" x2="9.82" y2="44.98"/><line class="cls-2" x1="42.95" y1="55.43" x2="45.03" y2="59.9"/><line class="cls-2" x1="19.13" y1="4.36" x2="21.22" y2="8.84"/><line class="cls-2" x1="38.74" y1="56.96" x2="40.01" y2="61.73"/><line class="cls-2" x1="24.15" y1="2.53" x2="25.43" y2="7.3"/><line class="cls-2" x1="40.88" y1="56.29" x2="42.56" y2="60.93"/><line class="cls-2" x1="21.6" y1="3.34" x2="23.29" y2="7.98"/><line class="cls-2" x1="36.55" y1="57.44" x2="37.4" y2="62.31"/><line class="cls-2" x1="26.76" y1="1.95" x2="27.62" y2="6.82"/><line class="cls-2" x1="34.33" y1="57.83" x2="34.75" y2="62.66"/><line class="cls-2" x1="13.91" y1="13.96" x2="10.42" y2="10.46"/><line class="cls-2" x1="53.75" y1="53.8" x2="50.26" y2="50.3"/><line class="cls-2" x1="32.08" y1="57.83" x2="32.08" y2="62.77"/><line class="cls-2" x1="6.38" y1="32.13" x2="1.44" y2="32.13"/><line class="cls-2" x1="62.73" y1="32.13" x2="57.78" y2="32.13"/><line class="cls-2" x1="13.98" y1="50.24" x2="10.42" y2="53.8"/><line class="cls-2" x1="53.75" y1="10.46" x2="50.19" y2="14.02"/><circle id="pointer" class="cls-3" cx="32" cy="4.07" r="3"/></svg>